# xmcd CD database file
#
# Track frame offsets:
#        150
#        11599
#        23523
#        36037
#        50642
#        64458
#        78039
#        88555
#        101257
#        115213
#        126817
#        139640
#        150239
#        160026
#        171738
#        183637
#        195760
#        208697
#        221800
#        233614
#        246227
#        256981
#        268833
#        282916
#        292372
#        305859
#        318272
#        330275
#
# Disc length: 4587 seconds
#
# Revision: 0
# Processed by: cddbd v1.5.2PL0 Copyright (c) Steve Scherf et al.
# Submitted via: CUERipper 2.1.6
#
DISCID=8d11e91c
DTITLE=George Jones - The Tour de Force (1972-1980)
DYEAR=2016
DGENRE=Country
TTITLE0=A Picture Of Me (Without You)
TTITLE1=The Man Worth Lovin' You
TTITLE2=She Knows What She's Crying About
TTITLE3=Second Handed Flowers
TTITLE4=That Singing Friend Of Mine
TTITLE5=She Loves Me (Right Out Of My Mind)
TTITLE6=Tomorrow Never Comes
TTITLE7=Another Way To Say Goodbye
TTITLE8=On The Back Row
TTITLE9=Let There Be A Woman
TTITLE10=We Found A Match
TTITLE11=Nothing Ever Hurt Me (Half As Bad As Losing You)
TTITLE12=Your Looking At A Happy Man
TTITLE13=Never Having You
TTITLE14=Made For The Blues
TTITLE15=What's Your Mama's Name
TTITLE16=Mom And Dad's Waltz
TTITLE17=You'll Never Grow Old (To Me)
TTITLE18=What My Woman Can't Do
TTITLE19=My Loving Wife
TTITLE20=Love Lives Again
TTITLE21=Wine (You've Used Me Long Enough)
TTITLE22=The Grand Tour
TTITLE23=Darlin'
TTITLE24=Pass Me By (If You're Only Passing Through)
TTITLE25=She'll Love The One She's With
TTITLE26=Once You've Had The Best
TTITLE27=Borrowed Angel
EXTD=
EXTT0=
EXTT1=
EXTT2=
EXTT3=
EXTT4=
EXTT5=
EXTT6=
EXTT7=
EXTT8=
EXTT9=
EXTT10=
EXTT11=
EXTT12=
EXTT13=
EXTT14=
EXTT15=
EXTT16=
EXTT17=
EXTT18=
EXTT19=
EXTT20=
EXTT21=
EXTT22=
EXTT23=
EXTT24=
EXTT25=
EXTT26=
EXTT27=
PLAYORDER=
